<?xml version="1.0" encoding="UTF-8" standalone="no"?>
<!-- Created with Inkscape (http://www.inkscape.org/) -->

<svg
   width="200mm"
   height="200mm"
   viewBox="0 0 200 199.99999"
   version="1.1"
   id="svg1"
   xml:space="preserve"
   xmlns="http://www.w3.org/2000/svg"
   xmlns:svg="http://www.w3.org/2000/svg"><defs
     id="defs1" /><rect
     style="display:inline;fill:#fff6d5;stroke-width:0.264172"
     id="rect1"
     width="200"
     height="200"
     x="-4.4408921e-16"
     y="0" /><g
     id="g23"
     style="display:inline;opacity:1;fill:#ff0000;fill-opacity:1"
     transform="matrix(0.80658869,0,0,0.80658869,13.755721,-20.209474)"><path
       id="path47"
       style="baseline-shift:baseline;display:inline;overflow:visible;opacity:1;vector-effect:none;fill:#221b17;fill-opacity:1;stroke-linecap:round;stroke-linejoin:round;enable-background:accumulate;stop-color:#000000;stop-opacity:1"
       d="m 107.86112,68.448535 c -1.10538,0.0027 -1.73766,0.0612 -1.75752,0.06304 -11.176657,0.02068 -19.843617,3.678112 -26.384952,9.15448 -6.559881,5.491894 -11.003966,12.753745 -14.038936,19.954855 -2.382777,5.65364 -3.830918,11.18965 -4.798674,15.94527 -6.898092,-0.43057 -11.720947,3.98817 -13.128914,9.29143 -1.403843,5.28773 0.523054,11.44482 5.958809,14.59342 -0.94535,3.27142 -1.516402,6.88131 -1.029394,10.67997 1.375052,10.72541 6.919912,17.55724 13.022461,21.81314 -8.875356,24.26781 -2.133403,44.80749 -1.288294,47.19557 0.176937,2.5127 1.483481,5.12662 3.316594,7.31583 1.89179,2.25929 4.403654,4.11631 7.28741,4.28708 0.02083,0.001 0.04167,0.002 0.06253,0.002 0,0 2.667735,0.0478 5.421891,0.0718 1.377078,0.012 2.775168,0.017 3.88245,0.008 0.553641,-0.005 1.032247,-0.013 1.412317,-0.0269 0.190035,-0.007 0.354425,-0.0139 0.503846,-0.0258 0.149422,-0.0119 0.217583,0.005 0.5333,-0.0858 2.674445,-0.77328 4.251951,-3.42449 4.493783,-6.33967 0.221915,-2.67508 -0.64044,-5.72578 -2.868559,-8.31318 0.704803,-2.37719 1.057934,-5.36989 1.281059,-7.95094 0.03939,-0.45562 0.07382,-0.89768 0.103869,-1.3193 2.255853,2.55972 4.32102,4.37463 5.444113,5.29787 -0.735529,2.3834 -0.06088,4.75162 0.823205,6.50193 0.440824,0.87274 0.927137,1.51649 1.380794,2.12287 -1.302338,0.73968 -2.744059,1.97342 -3.277319,4.36149 -0.256579,1.14903 -0.0977,2.25403 0.335897,3.10937 0.433594,0.85534 1.08442,1.45129 1.704805,1.8712 1.240771,0.83983 2.525428,1.08211 2.525428,1.08211 0.09963,0.0206 0.201092,0.031 0.302824,0.031 h 11.755867 c 1.05714,0.21235 6.33599,1.1234 13.04468,-0.31419 2.69931,-0.57842 4.60536,-2.84644 6.05287,-4.82245 0.84165,-1.14895 1.5063,-2.25724 1.91512,-2.98379 2.05656,0.0224 3.93443,-0.10049 5.59863,-0.29301 -0.4588,0.90874 -0.74207,1.96714 -0.74207,3.17138 0,1.17272 0.40029,2.21277 1.01337,2.94711 0.61308,0.73435 1.37903,1.16531 2.07636,1.43351 1.39466,0.53639 2.70113,0.48627 2.70113,0.48627 l 10.00765,0.0393 c 1.35756,0.005 3.05774,-0.24686 4.41989,-0.84957 12.41776,-5.49453 17.35277,-18.90029 16.49253,-33.00212 -0.83851,-13.74582 -7.03188,-28.41061 -17.35191,-38.16407 2.82492,-6.89493 2.84571,-13.25014 1.92546,-18.23972 5.82594,-2.3686 8.58396,-8.81583 7.9282,-14.55932 -0.35186,-3.08177 -1.70174,-6.05428 -4.18527,-8.09201 -1.86264,-1.5283 -4.33563,-2.4745 -7.31273,-2.5895 -0.56765,-0.0219 -1.15359,-0.0135 -1.757,0.0269 -3.84699,-23.66831 -15.2578,-35.108831 -25.83874,-40.378928 -8.07804,-4.023469 -15.65274,-4.516381 -18.96886,-4.508252 z" /><path
       id="path42"
       style="baseline-shift:baseline;display:inline;overflow:visible;opacity:1;vector-effect:none;fill:#ebbda5;fill-opacity:1;stroke-linecap:round;stroke-linejoin:round;enable-background:accumulate;stop-color:#000000;stop-opacity:1"
       d="m 110.20259,216.26277 c 5.62041,2.71043 10.9041,3.87983 15.58878,4.39028 0.87805,0.0957 1.73505,0.1682 2.56928,0.22339 -0.32274,0.54224 -0.32932,0.65503 -0.84129,1.35392 -1.27796,1.74454 -3.06939,3.4068 -4.26176,3.66231 -1.04339,0.22358 -2.04243,0.38624 -2.98663,0.5013 -5.21821,0.63588 -8.76151,-0.18209 -8.85864,-0.20468 -0.0247,-0.008 -0.36701,-0.12205 -0.82527,-0.39842 -0.25296,-0.15336 -0.5377,-0.35254 -0.81959,-0.60513 -0.83006,-0.7438 -1.55719,-1.74601 -1.35547,-3.65456 0.27082,-2.5624 0.91182,-4.02161 1.42575,-4.82244 0.15114,-0.23551 0.25329,-0.33057 0.36484,-0.44597 z" /><path
       id="path39"
       style="baseline-shift:baseline;display:inline;overflow:visible;opacity:1;vector-effect:none;fill:#ebbda5;fill-opacity:1;stroke-linecap:round;stroke-linejoin:round;enable-background:accumulate;stop-color:#000000;stop-opacity:1"
       d="m 60.310541,116.64043 c -0.2098,1.24637 -0.388639,2.40307 -0.530103,3.44787 -0.04444,0.32821 -0.08519,0.64538 -0.122054,0.95082 -1.436891,-0.20224 -3.336198,-0.15217 -5.320605,1.54875 -0.628724,0.53941 -0.70114,1.48637 -0.161748,2.11511 0.539261,0.62889 1.486236,0.70154 2.115117,0.16227 1.197805,-1.02669 2.246612,-1.05795 3.027205,-0.93535 -0.0668,0.85956 -0.148803,1.81308 -0.156063,1.98438 -0.28942,0.39763 -1.81151,2.60485 -3.381122,6.01447 -0.370329,0.80445 -0.743304,1.67584 -1.103359,2.60619 -3.823688,-2.5278 -5.081653,-6.93788 -4.027661,-10.90786 1.074458,-4.04706 4.324976,-7.1748 9.660393,-6.98665 z" /><path
       id="path38"
       style="baseline-shift:baseline;display:inline;overflow:visible;opacity:1;vector-effect:none;fill:#ebbda5;fill-opacity:1;stroke-linecap:round;stroke-linejoin:round;enable-background:accumulate;stop-color:#000000;stop-opacity:1"
       d="m 154.19473,116.29368 c 2.45387,0.0582 4.27848,0.807 5.641,1.92494 1.78825,1.46726 2.82887,3.67021 3.10782,6.11333 0.50246,4.40077 -1.51304,9.2795 -5.63841,11.24117 -0.274,-0.98209 -0.57077,-1.87853 -0.8708,-2.68522 -1.07354,-2.88645 -2.18881,-4.62379 -2.452,-5.02439 -0.0377,-1.3335 -0.091,-2.6437 -0.16485,-3.92224 0.22526,-0.0245 0.47117,-0.0423 0.72554,-0.045 1.00696,-0.0107 1.85826,0.22029 2.24017,0.76171 0.47729,0.67682 1.41278,0.83875 2.0898,0.36174 0.67696,-0.47748 0.83868,-1.41334 0.36122,-2.09031 -1.22515,-1.73686 -3.25408,-2.04853 -4.72426,-2.03295 -0.31816,0.003 -0.62426,0.0226 -0.90796,0.0506 -0.033,-0.38497 -0.0677,-0.76715 -0.10417,-1.14658 -0.11438,-1.18983 -0.2459,-2.35254 -0.39399,-3.4888 0.37671,-0.0208 0.74034,-0.0264 1.09089,-0.0181 z" /><path
       id="path44"
       style="baseline-shift:baseline;display:inline;overflow:visible;opacity:1;vector-effect:none;fill:#ebbda5;fill-opacity:1;stroke-linecap:round;stroke-linejoin:round;enable-background:accumulate;stop-color:#000000;stop-opacity:1"
       d="m 86.246425,216.30407 v 5.2e-4 c 1.21292,1.51833 1.90547,3.14826 2.072522,4.63365 0.04481,0.39847 0.05181,0.78654 0.02089,1.15927 -0.165771,1.99829 -1.148969,3.32914 -2.310453,3.6835 -0.08061,0.006 -0.191058,0.0141 -0.340031,0.0196 -0.328765,0.0121 -0.790375,0.0188 -1.328084,0.0232 -1.075417,0.009 -2.463683,0.004 -3.831808,-0.008 -2.706536,-0.0235 -5.27931,-0.0711 -5.336108,-0.0723 -1.615475,-0.0975 -3.617504,-1.37278 -5.159892,-3.21479 -1.038575,-1.24033 -1.702397,-2.63882 -2.124935,-3.93723 5.779388,0.57458 10.423639,-0.005 13.734046,-0.79323 1.415558,-0.33704 2.51299,-0.68675 3.377055,-1.00873 0.473528,-0.17314 0.883734,-0.3386 1.226798,-0.48524 z" /><path
       id="path43"
       style="baseline-shift:baseline;display:inline;overflow:visible;opacity:1;vector-effect:none;fill:#56413a;fill-opacity:1;stroke-linecap:round;stroke-linejoin:round;enable-background:accumulate;stop-color:#000000;stop-opacity:1"
       d="m 98.113401,212.19532 c 2.972059,2.00893 6.443069,3.62639 8.388639,4.46691 -0.28481,0.69243 -0.52236,1.55582 -0.72606,2.51147 -0.14111,0.61299 -0.26501,1.27277 -0.34623,2.04122 -0.21558,2.03981 0.37828,3.7044 1.21595,4.9258 h -7.329272 c -0.07337,-0.0179 -0.757049,-0.17816 -1.377176,-0.5979 -0.326327,-0.22088 -0.576737,-0.4781 -0.710551,-0.74207 -0.133814,-0.26397 -0.208001,-0.54545 -0.08423,-1.09968 0.562995,-2.52124 3.015829,-2.99413 3.015829,-2.99413 1.16776,-0.24938 1.59026,-1.69682 0.74001,-2.53524 0,0 -1.240272,-1.2398 -2.109428,-2.96055 -0.488448,-0.96702 -0.690709,-1.98995 -0.677478,-3.01583 z" /><path
       id="path45"
       style="baseline-shift:baseline;display:inline;overflow:visible;opacity:1;vector-effect:none;fill:#6c5549;fill-opacity:1;stroke-linecap:round;stroke-linejoin:round;enable-background:accumulate;stop-color:#000000;stop-opacity:1"
       d="m 154.64483,159.58406 c 9.28017,9.14201 15.00935,22.86807 15.78302,35.5508 0.81172,13.30638 -3.67236,25.1911 -14.7128,30.0762 -0.63102,0.27921 -2.37109,0.59696 -3.1936,0.59376 l -10.04693,-0.0393 c -0.0129,-1.7e-4 -0.0258,-1.7e-4 -0.0388,0 0,0 -0.82354,-0.003 -1.55701,-0.28526 -0.36674,-0.14105 -0.66665,-0.33499 -0.85163,-0.55655 -0.18497,-0.22156 -0.31626,-0.4674 -0.31626,-1.02526 0,-2.00116 1.01891,-3.0261 2.3518,-3.77548 0.66644,-0.3747 1.39997,-0.62701 2.01331,-0.7674 0.61335,-0.1404 1.18929,-0.13852 1.14257,-0.14469 1.17105,0.15441 2.05291,-1.04236 1.55856,-2.11512 0,0 -2.09484,-4.62625 -1.80454,-9.74824 0.14515,-2.561 0.86414,-5.18903 2.68769,-7.50962 1.82354,-2.32059 4.78926,-4.39679 9.6914,-5.70508 0.8004,-0.21363 1.27608,-1.03566 1.06246,-1.83606 -0.21362,-0.8004 -1.03565,-1.27609 -1.83606,-1.06247 -5.38353,1.43677 -9.00682,3.86057 -11.27735,6.74998 -2.27053,2.88942 -3.15356,6.18009 -3.32434,9.19323 -0.24335,4.29358 0.72129,7.40396 1.40663,9.26197 -0.50264,0.11614 -1.04682,0.27819 -1.6061,0.5023 -0.006,0.001 -0.0114,0.002 -0.0171,0.004 -1.96007,0.448 -4.74496,0.95451 -8.15712,1.05833 3.17258,-5.52759 10.92684,-20.18344 12.80955,-34.38446 0.10859,-0.82088 -0.46852,-1.57448 -1.28933,-1.68362 -0.8207,-0.10859 -1.57421,0.46822 -1.68361,1.28881 -2.10521,15.87935 -11.99578,32.56459 -13.2793,34.68367 -4.76579,-0.19798 -10.1949,-0.87051 -16.15074,-3.29951 -0.80279,-0.32741 -1.61515,-0.68673 -2.43675,-1.0811 0.1321,-1.61742 1.24804,-14.73491 4.8612,-24.49049 0.28778,-0.77657 -0.10826,-1.63942 -0.8847,-1.92753 -0.77672,-0.28812 -1.63994,0.10798 -1.92805,0.8847 -0.29972,0.80924 -0.58322,1.64113 -0.85127,2.48802 -2.93302,9.26676 -4.01625,20.32991 -4.25746,23.17914 -0.13007,0.11419 -0.26997,0.24885 -0.41548,0.40566 -1.06842,-0.46438 -2.84379,-1.26934 -4.71961,-2.26084 -1.87583,-0.9915 -3.851991,-2.16978 -5.320603,-3.38067 -0.0087,-0.007 -0.0175,-0.0135 -0.02635,-0.0202 -0.01309,-0.0104 -0.02636,-0.0206 -0.03979,-0.0305 0,0 -4.221793,-3.10461 -8.206217,-8.44134 -0.01239,-0.0171 -0.02514,-0.034 -0.03824,-0.0506 -1.591454,-2.13807 -3.127528,-4.61859 -4.329211,-7.37449 -0.972213,-2.22964 -1.72555,-4.63952 -2.112256,-7.19413 -0.124394,-0.81844 -0.888309,-1.38138 -1.706873,-1.25781 -0.81867,0.12438 -1.381682,0.88864 -1.257804,1.70739 0.365359,2.41359 1.01736,4.68946 1.853933,6.81054 1.29569,3.28513 3.034131,6.19894 4.836098,8.67792 -0.02797,0.82196 -0.101927,2.55872 -0.275952,4.57182 -0.225012,2.60288 -0.670382,5.59097 -1.275375,7.52925 -0.161962,0.0819 -0.383475,0.19004 -0.680061,0.3173 -0.450323,0.18459 -1.025879,0.3996 -1.727548,0.6225 -0.611348,0.19421 -1.318431,0.39441 -2.12183,0.58569 h -5.17e-4 c -2.70633,0.64431 -6.514304,1.08775 -11.190062,0.77681 -0.878995,-0.0584 -1.788658,-0.14356 -2.727434,-0.25901 -0.816568,-2.30876 -6.909487,-20.84255 1.257804,-43.77976 0.71996,0.4452 1.492356,0.90853 2.319192,1.38059 6.679633,3.81359 16.912132,8.19712 31.753146,8.19712 21.32812,0 34.66186,-5.72578 42.63668,-11.54658 3.76641,-2.74909 6.35041,-5.54896 8.02873,-7.73842 0.68331,-0.89142 1.21649,-1.68165 1.61822,-2.32608 z" /><path
       id="path36"
       style="baseline-shift:baseline;display:inline;overflow:visible;opacity:1;vector-effect:none;fill:#6c5549;fill-opacity:1;stroke-linecap:round;stroke-linejoin:round;enable-background:accumulate;stop-color:#000000;stop-opacity:1"
       d="m 107.91642,71.441117 c 3.03644,-0.0055 10.0502,0.452018 17.57774,4.201294 5.79579,2.886736 11.89113,7.685245 16.67661,15.841333 3.50167,5.968033 6.30201,13.733796 7.77048,23.863736 0.33651,2.32134 0.60335,4.76782 0.78909,7.34374 0.13044,1.80887 0.22055,3.6816 0.26976,5.62136 0.008,0.29081 0.10018,0.57305 0.26561,0.81235 0,0 2.26483,3.27987 3.5078,8.66408 1.13583,4.92017 1.38545,11.47981 -1.87121,18.77714 -0.002,0.005 -0.004,0.009 -0.006,0.014 0,0 -2.21799,5.20685 -9.66762,10.64431 -7.44964,5.43746 -20.07372,10.9709 -40.86728,10.9709 -17.297379,0 -27.740478,-6.0636 -33.931775,-10.03711 -3.767308,-2.41782 -7.316771,-5.72123 -9.7663,-10.44933 -1.444422,-2.78803 -2.506381,-6.07145 -3.005014,-9.96079 -0.468284,-3.65261 0.109214,-7.24802 1.152385,-10.4588 1.862967,-5.73402 5.017265,-9.9906 5.017265,-9.9906 0.182473,-0.24438 0.286125,-0.53857 0.297139,-0.84336 0,0 0.04389,-1.28815 0.28112,-3.53157 0.202486,-1.91485 0.545471,-4.50425 1.117244,-7.506 0.922035,-4.8406 2.442117,-10.753 4.920114,-16.632575 2.907504,-6.898667 7.129864,-13.735552 13.201261,-18.81849 6.071398,-5.082939 13.973067,-8.462532 24.548891,-8.462532 0.047,-5.65e-4 0.0939,-0.0033 0.14056,-0.0083 0,0 0.57018,-0.05296 1.58233,-0.05478 z" /><path
       style="baseline-shift:baseline;display:inline;overflow:visible;opacity:1;vector-effect:none;fill:#ebbda5;fill-opacity:1;stroke-linecap:round;stroke-linejoin:round;enable-background:accumulate;stop-color:#000000;stop-opacity:1"
       d="m 121.14063,106.86328 c 1.98442,-0.16948 3.26026,0.0373 3.2832,0.041 7.09314,1.48425 10.9233,5.73167 12.68359,10.70508 1.7634,4.98217 1.2651,10.72849 -0.61914,14.61523 -0.3059,0.63027 -0.13483,1.38836 0.41211,1.82617 2.67504,2.14362 5.85849,6.25742 6.97461,11.05469 0.44077,1.89452 0.58953,3.89354 0.28197,5.96522 -0.47014,3.16684 -2.00654,6.50346 -5.19603,9.89611 -11.00885,10.51398 -22.43445,10.83668 -36.73633,11.75976 -0.0683,-4.4e-4 -5.876575,-0.0414 -13.00586,-1.50586 -7.171256,-1.4731 -15.515541,-4.43317 -20.363281,-9.89453 -3.541136,-3.98937 -5.191566,-7.58666 -5.6922,-10.78852 -0.509093,-3.25596 0.170795,-6.10301 1.260559,-8.53763 1.08071,-2.41439 2.630373,-4.39607 3.9375,-5.77539 0.653564,-0.68966 1.245714,-1.22921 1.679688,-1.59766 0.216987,-0.18422 0.394369,-0.32747 0.517578,-0.42187 0.123209,-0.0944 0.305867,-0.20159 0.115234,-0.0899 0.678287,-0.39665 0.935585,-1.24947 0.589844,-1.95507 -2.208584,-4.50242 -2.485818,-10.12406 -0.691406,-14.85352 1.794411,-4.72946 5.534045,-8.57306 11.628906,-9.875 0.01568,-0.003 0.0313,-0.006 0.04687,-0.01 0,0 6.285571,-1.47192 11.617187,1.38281 3.805932,2.03782 6.724281,3.30055 9.814461,3.41992 3.09017,0.11937 6.11473,-0.94732 10.00195,-3.10352 2.76295,-1.53257 5.45685,-2.08681 7.45899,-2.25781 z"
       id="path28" /><path
       id="path1"
       style="baseline-shift:baseline;display:inline;overflow:visible;opacity:1;mix-blend-mode:normal;vector-effect:none;fill:#e29585;fill-opacity:1;stroke:none;stroke-linecap:round;stroke-linejoin:round;stroke-opacity:1;enable-background:accumulate;stop-color:#000000;stop-opacity:1"
       d="m 59.780438,120.0883 c -0.04444,0.32821 -0.610888,5.65468 -0.618148,5.82598 -0.28942,0.39763 -1.81151,2.60485 -3.381122,6.01447 0,0 -2.88434,-2.09769 -2.787415,-5.92623 0.178427,-7.04823 6.60598,-5.9698 6.786685,-5.91422 z" /><path
       id="path2"
       style="baseline-shift:baseline;display:inline;overflow:visible;opacity:1;vector-effect:none;fill:#e29585;fill-opacity:1;stroke-linecap:round;stroke-linejoin:round;enable-background:accumulate;stop-color:#000000;stop-opacity:1"
       d="m 153.49783,119.80048 c 0.0365,0.37943 0.44681,6.72953 0.48451,8.06303 0.26319,0.4006 1.37846,2.13794 2.452,5.02439 0,0 4.75553,-2.2622 3.6176,-8.13848 -1.13741,-5.87359 -6.55411,-4.94894 -6.55411,-4.94894 z" /><path
       id="path4"
       style="baseline-shift:baseline;display:inline;overflow:visible;opacity:1;vector-effect:none;fill:#9d7e6d;fill-opacity:1;stroke-linecap:round;stroke-linejoin:round;enable-background:accumulate;stop-color:#000000;stop-opacity:1"
       d="m 142.17077,91.483744 c -4.78548,-8.156088 -10.88082,-12.954597 -16.67661,-15.841333 -7.52754,-3.749276 -14.5413,-4.206794 -17.57774,-4.201294 l 2e-4,6e-6 c -1.01215,0.0018 -1.58233,0.05478 -1.58233,0.05478 -0.0467,0.005 -0.0936,0.0077 -0.14056,0.0083 -10.575824,0 -18.477493,3.379593 -24.548891,8.462532 -6.071397,5.082938 -10.293757,11.919823 -13.201261,18.81849 -2.477997,5.879575 -3.998079,11.791975 -4.920114,16.632575 -0.571773,3.00175 -0.914758,5.59115 -1.117244,7.506 -0.23723,2.24342 -0.28112,3.53157 -0.28112,3.53157 -0.01101,0.30479 -0.114666,0.59898 -0.297139,0.84336 0,0 -3.154298,4.25658 -5.017265,9.9906 -1.043171,3.21078 -1.620669,6.80619 -1.152385,10.4588 0.498633,3.88934 1.560592,7.17276 3.005014,9.96079 0,0 -5.862511,-15.81151 5.370079,-29.64211 0,0 1.459754,-36.489797 25.700728,-48.964684 20.546728,-10.458114 41.190148,-2.451277 52.436638,12.381618 z" /><path
       id="path13"
       style="baseline-shift:baseline;display:inline;overflow:visible;opacity:1;vector-effect:none;fill:#9d7e6d;fill-opacity:1;stroke-linecap:round;stroke-linejoin:round;enable-background:accumulate;stop-color:#000000;stop-opacity:1"
       d="m 70.607984,172.99785 c -0.826836,-0.47206 -1.599232,-0.93539 -2.319192,-1.38059 -8.167291,22.93721 -2.074372,41.471 -1.257804,43.77976 0.938776,0.11545 1.848439,0.20061 2.727434,0.25901 -5.190416,-19.78885 -2.167187,-33.61985 0.849562,-42.65818 z" /><path
       id="path14"
       style="baseline-shift:baseline;display:inline;overflow:visible;opacity:1;vector-effect:none;fill:#e29585;fill-opacity:1;stroke-linecap:round;stroke-linejoin:round;enable-background:accumulate;stop-color:#000000;stop-opacity:1"
       d="m 91.329827,222.34625 c 0.221915,-2.67508 -0.241832,2.91518 0,0 z m -3.01088,-1.40801 c 0.04481,0.39847 0.05181,0.78654 0.02089,1.15927 -0.165771,1.99829 -1.148969,3.32914 -2.310453,3.6835 -0.08061,0.006 -0.191058,0.0141 -0.340031,0.0196 -0.328765,0.0121 -0.790375,0.0188 -1.328084,0.0232 0,0 -3.636048,-1.26805 -2.490675,-5.4416 0,0 1.757987,1.82464 3.545947,1.85142 1.746197,0.0262 2.902406,-1.29539 2.902406,-1.29539 z" /><path
       id="path15"
       style="baseline-shift:baseline;display:inline;overflow:visible;opacity:1;vector-effect:none;fill:#e29585;fill-opacity:1;stroke-linecap:round;stroke-linejoin:round;enable-background:accumulate;stop-color:#000000;stop-opacity:1"
       d="m 105.42975,221.21492 c -0.21558,2.03981 0.37828,3.7044 1.21595,4.9258 h -7.329272 c -0.07337,-0.0179 -0.757049,-0.17816 -1.377176,-0.5979 -0.326327,-0.22088 -0.576737,-0.4781 -0.710551,-0.74207 -0.133814,-0.26397 -0.208001,-0.54545 -0.08423,-1.09968 0.562995,-2.52124 3.015829,-2.99413 3.015829,-2.99413 0,0 2.3647,-0.20184 5.26945,0.50798 z" /><path
       id="path16"
       style="baseline-shift:baseline;display:inline;overflow:visible;opacity:1;vector-effect:none;fill:#e29585;fill-opacity:1;stroke-linecap:round;stroke-linejoin:round;enable-background:accumulate;stop-color:#000000;stop-opacity:1"
       d="m 129.93936,224.00403 c 0.84165,-1.14895 -1.44751,1.97601 0,0 z m -4.14799,-3.35098 c 0.87805,0.0957 1.73505,0.1682 2.56928,0.22339 -0.32274,0.54224 -0.32932,0.65503 -0.84129,1.35392 -1.27796,1.74454 -3.06939,3.4068 -4.26176,3.66231 -1.04339,0.22358 -2.04243,0.38624 -2.98663,0.5013 0,0 3.79622,-2.29609 5.5204,-5.74092 z" /><path
       id="path17"
       style="baseline-shift:baseline;display:inline;overflow:visible;opacity:1;vector-effect:none;fill:#56413a;fill-opacity:1;stroke-linecap:round;stroke-linejoin:round;enable-background:accumulate;stop-color:#000000;stop-opacity:1"
       d="m 82.193669,192.57474 c 1.29569,3.28513 3.034131,6.19894 4.836098,8.67792 -0.02797,0.82196 -0.101927,2.55872 -0.275952,4.57182 -0.225012,2.60288 -0.670382,5.59097 -1.275375,7.52925 -0.161962,0.0819 -0.383475,0.19004 -0.680061,0.3173 -0.450323,0.18459 -1.025879,0.3996 -1.727548,0.6225 0,0 -0.221182,-7.48872 -0.877162,-21.71879 z" /><path
       style="fill:none;stroke:#221b17;stroke-width:2.5;stroke-linecap:round;stroke-linejoin:round;stroke-dasharray:none;stroke-opacity:1"
       d="m 91.626676,140.08264 c -1.722838,-4.52694 2.404074,-9.08936 7.062597,-7.15614 3.599447,1.49374 3.881407,1.52723 7.211897,0.22355 4.79669,-1.8776 8.89893,2.56361 7.227,6.98739"
       id="path11" /><path
       id="path18"
       style="baseline-shift:baseline;display:inline;overflow:visible;opacity:1;vector-effect:none;fill:#ebbda5;fill-opacity:1;stroke-linecap:round;stroke-linejoin:round;enable-background:accumulate;stop-color:#000000;stop-opacity:1"
       d="m 112.76963,190.48259 c -2.93302,9.26676 -4.01625,20.32991 -4.25746,23.17914 -0.13007,0.11419 -0.26997,0.24885 -0.41548,0.40566 -1.06842,-0.46438 -2.84379,-1.26934 -4.71961,-2.26084 -1.87583,-0.9915 -3.851991,-2.16978 -5.320603,-3.38067 -0.0087,-0.007 -0.0175,-0.0135 -0.02635,-0.0202 -0.01309,-0.0104 -0.02636,-0.0206 -0.03979,-0.0305 0,0 -4.221793,-3.10461 -8.206217,-8.44134 -0.01239,-0.0171 -0.02514,-0.034 -0.03824,-0.0506 -1.591454,-2.13807 -3.127528,-4.61859 -4.329211,-7.37449 0,0 0.834063,-10.51844 13.286198,-3.52003 0,0 7.295903,-6.12281 14.066763,1.49387 z" /><path
       id="path19"
       style="baseline-shift:baseline;display:inline;overflow:visible;opacity:1;vector-effect:none;fill:#ebbda5;fill-opacity:1;stroke-linecap:round;stroke-linejoin:round;enable-background:accumulate;stop-color:#000000;stop-opacity:1"
       d="m 155.71505,225.21106 c -0.63102,0.27921 -2.37109,0.59696 -3.1936,0.59376 l -10.04693,-0.0393 c -0.0129,-1.7e-4 -0.0258,-1.7e-4 -0.0388,0 0,0 -0.82354,-0.003 -1.55701,-0.28526 -0.36674,-0.14105 -0.66665,-0.33499 -0.85163,-0.55655 -0.18497,-0.22156 -0.31626,-0.4674 -0.31626,-1.02526 0,-2.00116 1.01891,-3.0261 2.3518,-3.77548 0.66644,-0.3747 1.39997,-0.62701 2.01331,-0.7674 0.61335,-0.1404 1.18929,-0.13852 1.14257,-0.14469 0,0 13.18781,0.41349 10.49655,6.00018 z" /><path
       style="fill:none;stroke:#221b17;stroke-width:2.5;stroke-linecap:round;stroke-linejoin:round;stroke-dasharray:none;stroke-opacity:1"
       d="m 86.518749,151.80469 c 0,0 21.703291,11.26748 33.535941,-3.43959"
       id="path10" /><path
       id="path23"
       style="baseline-shift:baseline;display:inline;overflow:visible;opacity:1;vector-effect:none;fill:#9d7e6d;fill-opacity:1;stroke-linecap:round;stroke-linejoin:round;enable-background:accumulate;stop-color:#000000;stop-opacity:1"
       d="m 153.02654,161.90997 c 0.68331,-0.89142 1.21649,-1.68165 1.61822,-2.32608 l 7e-5,1.7e-4 c 9.28017,9.14201 15.00935,22.86807 15.78302,35.5508 0,0 -4.39092,-21.04365 -17.40131,-33.22489 z" /><path
       id="path24"
       style="baseline-shift:baseline;display:inline;overflow:visible;opacity:1;vector-effect:none;fill:#9d7e6d;fill-opacity:1;stroke-linecap:round;stroke-linejoin:round;enable-background:accumulate;stop-color:#000000;stop-opacity:1"
       d="m 115.54895,187.10987 c 0.77644,0.28811 1.17248,1.15096 0.8847,1.92753 -3.61316,9.75558 -4.7291,22.87307 -4.8612,24.49049 0.8216,0.39437 1.63396,0.75369 2.43675,1.0811 0,0 1.33235,-13.94995 3.02061,-19.70819 1.97284,-6.72889 -1.48086,-7.79093 -1.48086,-7.79093 z" /><path
       id="path25"
       style="baseline-shift:baseline;display:inline;overflow:visible;opacity:1;vector-effect:none;fill:#221b17;fill-opacity:1;stroke-linecap:round;stroke-linejoin:round;enable-background:accumulate;stop-color:#000000;stop-opacity:1"
       d="m 107.86112,68.448535 c -1.10538,0.0027 -1.73766,0.0612 -1.75752,0.06304 -11.176657,0.02068 -19.843617,3.678112 -26.384952,9.15448 -6.559881,5.491894 -11.003966,12.753745 -14.038936,19.954855 -2.382777,5.65364 -3.830918,11.18965 -4.798674,15.94527 -6.898092,-0.43057 -11.720947,3.98817 -13.128914,9.29143 -1.403843,5.28773 0.523054,11.44482 5.958809,14.59342 -0.94535,3.27142 -1.516402,6.88131 -1.029394,10.67997 1.375052,10.72541 6.919912,17.55724 13.022461,21.81314 -8.875356,24.26781 -2.133403,44.80749 -1.288294,47.19557 0.176937,2.5127 1.483481,5.12662 3.316594,7.31583 1.89179,2.25929 4.403654,4.11631 7.28741,4.28708 0.02083,0.001 0.04167,0.002 0.06253,0.002 0,0 2.667735,0.0478 5.421891,0.0718 1.377078,0.012 2.775168,0.017 3.88245,0.008 0.553641,-0.005 1.032247,-0.013 1.412317,-0.0269 0.190035,-0.007 0.354425,-0.0139 0.503846,-0.0258 0.149422,-0.0119 0.217583,0.005 0.5333,-0.0858 2.674445,-0.77328 4.251951,-3.42449 4.493783,-6.33967 0.221915,-2.67508 -0.64044,-5.72578 -2.868559,-8.31318 0.704803,-2.37719 1.057934,-5.36989 1.281059,-7.95094 0.03939,-0.45562 0.07382,-0.89768 0.103869,-1.3193 2.255853,2.55972 4.32102,4.37463 5.444113,5.29787 -0.735529,2.3834 -0.06088,4.75162 0.823205,6.50193 0.440824,0.87274 0.927137,1.51649 1.380794,2.12287 -1.302338,0.73968 -2.744059,1.97342 -3.277319,4.36149 -0.256579,1.14903 -0.0977,2.25403 0.335897,3.10937 0.433594,0.85534 1.08442,1.45129 1.704805,1.8712 1.240771,0.83983 2.525428,1.08211 2.525428,1.08211 0.09963,0.0206 0.201092,0.031 0.302824,0.031 h 11.755867 c 1.05714,0.21235 6.33599,1.1234 13.04468,-0.31419 2.69931,-0.57842 4.60536,-2.84644 6.05287,-4.82245 0.84165,-1.14895 1.5063,-2.25724 1.91512,-2.98379 2.05656,0.0224 3.93443,-0.10049 5.59863,-0.29301 -0.4588,0.90874 -0.74207,1.96714 -0.74207,3.17138 0,1.17272 0.40029,2.21277 1.01337,2.94711 0.61308,0.73435 1.37903,1.16531 2.07636,1.43351 1.39466,0.53639 2.70113,0.48627 2.70113,0.48627 l 10.00765,0.0393 c 1.35756,0.005 3.05774,-0.24686 4.41989,-0.84957 12.41776,-5.49453 17.35277,-18.90029 16.49253,-33.00212 -0.83851,-13.74582 -7.03188,-28.41061 -17.35191,-38.16407 2.82492,-6.89493 2.84571,-13.25014 1.92546,-18.23972 5.82594,-2.3686 8.58396,-8.81583 7.9282,-14.55932 -0.35186,-3.08177 -1.70174,-6.05428 -4.18527,-8.09201 -1.86264,-1.5283 -4.33563,-2.4745 -7.31273,-2.5895 -0.56765,-0.0219 -1.15359,-0.0135 -1.757,0.0269 -3.84699,-23.66831 -15.2578,-35.108831 -25.83874,-40.378928 -8.07804,-4.023469 -15.65274,-4.516381 -18.96886,-4.508252 z m 0.0553,2.992582 c 3.03644,-0.0055 10.0502,0.452018 17.57774,4.201294 5.79579,2.886736 11.89113,7.685245 16.67661,15.841333 3.50167,5.968033 6.30201,13.733796 7.77048,23.863736 0.33651,2.32134 0.60335,4.76782 0.78909,7.34374 0.13044,1.80887 0.22055,3.6816 0.26976,5.62136 0.008,0.29081 0.10018,0.57305 0.26561,0.81235 0,0 2.26483,3.27987 3.5078,8.66408 1.13583,4.92017 1.38545,11.47981 -1.87121,18.77714 -0.002,0.005 -0.004,0.009 -0.006,0.014 0,0 -2.21799,5.20685 -9.66762,10.64431 -7.44964,5.43746 -20.07372,10.9709 -40.86728,10.9709 -17.297379,0 -27.740478,-6.0636 -33.931775,-10.03711 -3.767308,-2.41782 -7.316771,-5.72123 -9.7663,-10.44933 -1.444422,-2.78803 -2.506381,-6.07145 -3.005014,-9.96079 -0.468284,-3.65261 0.109214,-7.24802 1.152385,-10.4588 1.862967,-5.73402 5.017265,-9.9906 5.017265,-9.9906 0.182473,-0.24438 0.286125,-0.53857 0.297139,-0.84336 0,0 0.04389,-1.28815 0.28112,-3.53157 0.202486,-1.91485 0.545471,-4.50425 1.117244,-7.506 0.922035,-4.8406 2.442117,-10.753 4.920114,-16.632575 2.907504,-6.898667 7.129864,-13.735552 13.201261,-18.81849 6.071398,-5.082939 13.973067,-8.462532 24.548891,-8.462532 0.047,-5.65e-4 0.0939,-0.0033 0.14056,-0.0083 0,0 0.57018,-0.05296 1.58233,-0.05478 z m 46.27831,44.852563 c 2.45387,0.0582 4.27848,0.807 5.641,1.92494 1.78825,1.46726 2.82887,3.67021 3.10782,6.11333 0.50246,4.40077 -1.51304,9.2795 -5.63841,11.24117 -0.274,-0.98209 -0.57077,-1.87853 -0.8708,-2.68522 -1.07354,-2.88645 -2.18881,-4.62379 -2.452,-5.02439 -0.0377,-1.3335 -0.091,-2.6437 -0.16485,-3.92224 0.22526,-0.0245 0.47117,-0.0423 0.72554,-0.045 1.00696,-0.0107 1.85826,0.22029 2.24017,0.76171 0.47729,0.67682 1.41278,0.83875 2.0898,0.36174 0.67696,-0.47748 0.83868,-1.41334 0.36122,-2.09031 -1.22515,-1.73686 -3.25408,-2.04853 -4.72426,-2.03295 -0.31816,0.003 -0.62426,0.0226 -0.90796,0.0506 -0.033,-0.38497 -0.0677,-0.76715 -0.10417,-1.14658 -0.11438,-1.18983 -0.2459,-2.35254 -0.39399,-3.4888 0.37671,-0.0208 0.74034,-0.0264 1.09089,-0.0181 z m -93.884189,0.34675 c -0.2098,1.24637 -0.388639,2.40307 -0.530103,3.44787 -0.04444,0.32821 -0.08519,0.64538 -0.122054,0.95082 -1.436891,-0.20224 -3.336198,-0.15217 -5.320605,1.54875 -0.628724,0.53941 -0.70114,1.48637 -0.161748,2.11511 0.539261,0.62889 1.486236,0.70154 2.115117,0.16227 1.197805,-1.02669 2.246612,-1.05795 3.027205,-0.93535 -0.0668,0.85956 -0.148803,1.81308 -0.156063,1.98438 -0.28942,0.39763 -1.81151,2.60485 -3.381122,6.01447 -0.370329,0.80445 -0.743304,1.67584 -1.103359,2.60619 -3.823688,-2.5278 -5.081653,-6.93788 -4.027661,-10.90786 1.074458,-4.04706 4.324976,-7.1748 9.660393,-6.98665 z m 94.334289,42.94363 c 9.28017,9.14201 15.00935,22.86807 15.78302,35.5508 0.81172,13.30638 -3.67236,25.1911 -14.7128,30.0762 -0.63102,0.27921 -2.37109,0.59696 -3.1936,0.59376 l -10.04693,-0.0393 c -0.0129,-1.7e-4 -0.0258,-1.7e-4 -0.0388,0 0,0 -0.82354,-0.003 -1.55701,-0.28526 -0.36674,-0.14105 -0.66665,-0.33499 -0.85163,-0.55655 -0.18497,-0.22156 -0.31626,-0.4674 -0.31626,-1.02526 0,-2.00116 1.01891,-3.0261 2.3518,-3.77548 0.66644,-0.3747 1.39997,-0.62701 2.01331,-0.7674 0.61335,-0.1404 1.18929,-0.13852 1.14257,-0.14469 1.17105,0.15441 2.05291,-1.04236 1.55856,-2.11512 0,0 -2.09484,-4.62625 -1.80454,-9.74824 0.14515,-2.561 0.86414,-5.18903 2.68769,-7.50962 1.82354,-2.32059 4.78926,-4.39679 9.6914,-5.70508 0.8004,-0.21363 1.27608,-1.03566 1.06246,-1.83606 -0.21362,-0.8004 -1.03565,-1.27609 -1.83606,-1.06247 -5.38353,1.43677 -9.00682,3.86057 -11.27735,6.74998 -2.27053,2.88942 -3.15356,6.18009 -3.32434,9.19323 -0.24335,4.29358 0.72129,7.40396 1.40663,9.26197 -0.50264,0.11614 -1.04682,0.27819 -1.6061,0.5023 -0.006,0.001 -0.0114,0.002 -0.0171,0.004 -1.96007,0.448 -4.74496,0.95451 -8.15712,1.05833 3.17258,-5.52759 10.92684,-20.18344 12.80955,-34.38446 0.10859,-0.82088 -0.46852,-1.57448 -1.28933,-1.68362 -0.8207,-0.10859 -1.57421,0.46822 -1.68361,1.28881 -2.10521,15.87935 -11.99578,32.56459 -13.2793,34.68367 -4.76579,-0.19798 -10.1949,-0.87051 -16.15074,-3.29951 -0.80279,-0.32741 -1.61515,-0.68673 -2.43675,-1.0811 0.1321,-1.61742 1.24804,-14.73491 4.8612,-24.49049 0.28778,-0.77657 -0.10826,-1.63942 -0.8847,-1.92753 -0.77672,-0.28812 -1.63994,0.10798 -1.92805,0.8847 -0.29972,0.80924 -0.58322,1.64113 -0.85127,2.48802 -2.93302,9.26676 -4.01625,20.32991 -4.25746,23.17914 -0.13007,0.11419 -0.26997,0.24885 -0.41548,0.40566 -1.06842,-0.46438 -2.84379,-1.26934 -4.71961,-2.26084 -1.87583,-0.9915 -3.851991,-2.16978 -5.320603,-3.38067 -0.0087,-0.007 -0.0175,-0.0135 -0.02635,-0.0202 -0.01309,-0.0104 -0.02636,-0.0206 -0.03979,-0.0305 0,0 -4.221793,-3.10461 -8.206217,-8.44134 -0.01239,-0.0171 -0.02514,-0.034 -0.03824,-0.0506 -1.591454,-2.13807 -3.127528,-4.61859 -4.329211,-7.37449 -0.972213,-2.22964 -1.72555,-4.63952 -2.112256,-7.19413 -0.124394,-0.81844 -0.888309,-1.38138 -1.706873,-1.25781 -0.81867,0.12438 -1.381682,0.88864 -1.257804,1.70739 0.365359,2.41359 1.01736,4.68946 1.853933,6.81054 1.29569,3.28513 3.034131,6.19894 4.836098,8.67792 -0.02797,0.82196 -0.101927,2.55872 -0.275952,4.57182 -0.225012,2.60288 -0.670382,5.59097 -1.275375,7.52925 -0.161962,0.0819 -0.383475,0.19004 -0.680061,0.3173 -0.450323,0.18459 -1.025879,0.3996 -1.727548,0.6225 -0.611348,0.19421 -1.318431,0.39441 -2.12183,0.58569 h -5.17e-4 c -2.70633,0.64431 -6.514304,1.08775 -11.190062,0.77681 -0.878995,-0.0584 -1.788658,-0.14356 -2.727434,-0.25901 -0.816568,-2.30876 -6.909487,-20.84255 1.257804,-43.77976 0.71996,0.4452 1.492356,0.90853 2.319192,1.38059 6.679633,3.81359 16.912132,8.19712 31.753146,8.19712 21.32812,0 34.66186,-5.72578 42.63668,-11.54658 3.76641,-2.74909 6.35041,-5.54896 8.02873,-7.73842 0.68331,-0.89142 1.21649,-1.68165 1.61822,-2.32608 z m -56.531429,52.61126 c 2.972059,2.00893 6.443069,3.62639 8.388639,4.46691 -0.28481,0.69243 -0.52236,1.55582 -0.72606,2.51147 -0.14111,0.61299 -0.26501,1.27277 -0.34623,2.04122 -0.21558,2.03981 0.37828,3.7044 1.21595,4.9258 h -7.329272 c -0.07337,-0.0179 -0.757049,-0.17816 -1.377176,-0.5979 -0.326327,-0.22088 -0.576737,-0.4781 -0.710551,-0.74207 -0.133814,-0.26397 -0.208001,-0.54545 -0.08423,-1.09968 0.562995,-2.52124 3.015829,-2.99413 3.015829,-2.99413 1.16776,-0.24938 1.59026,-1.69682 0.74001,-2.53524 0,0 -1.240272,-1.2398 -2.109428,-2.96055 -0.488448,-0.96702 -0.690709,-1.98995 -0.677478,-3.01583 z m 12.089189,4.06745 c 5.62041,2.71043 10.9041,3.87983 15.58878,4.39028 0.87805,0.0957 1.73505,0.1682 2.56928,0.22339 -0.32274,0.54224 -0.32932,0.65503 -0.84129,1.35392 -1.27796,1.74454 -3.06939,3.4068 -4.26176,3.66231 -1.04339,0.22358 -2.04243,0.38624 -2.98663,0.5013 -5.21821,0.63588 -8.76151,-0.18209 -8.85864,-0.20468 -0.0247,-0.008 -0.36701,-0.12205 -0.82527,-0.39842 -0.25296,-0.15336 -0.5377,-0.35254 -0.81959,-0.60513 -0.83006,-0.7438 -1.55719,-1.74601 -1.35547,-3.65456 0.27082,-2.5624 0.91182,-4.02161 1.42575,-4.82244 0.15114,-0.23551 0.25329,-0.33057 0.36484,-0.44597 z m -23.956165,0.0413 v 5.2e-4 c 1.21292,1.51833 1.90547,3.14826 2.072522,4.63365 0.04481,0.39847 0.05181,0.78654 0.02089,1.15927 -0.165771,1.99829 -1.148969,3.32914 -2.310453,3.6835 -0.08061,0.006 -0.191058,0.0141 -0.340031,0.0196 -0.328765,0.0121 -0.790375,0.0188 -1.328084,0.0232 -1.075417,0.009 -2.463683,0.004 -3.831808,-0.008 -2.706536,-0.0235 -5.27931,-0.0711 -5.336108,-0.0723 -1.615475,-0.0975 -3.617504,-1.37278 -5.159892,-3.21479 -1.038575,-1.24033 -1.702397,-2.63882 -2.124935,-3.93723 5.779388,0.57458 10.423639,-0.005 13.734046,-0.79323 1.415558,-0.33704 2.51299,-0.68675 3.377055,-1.00873 0.473528,-0.17314 0.883734,-0.3386 1.226798,-0.48524 z" /><circle
       style="fill:#221b17;fill-opacity:1;stroke:none;stroke-width:0.264583;stroke-opacity:1"
       id="path6"
       cx="83.348"
       cy="126.7058"
       r="7.2496858" /><circle
       style="fill:#221b17;fill-opacity:1;stroke:none;stroke-width:0.264583;stroke-opacity:1"
       id="path6-6"
       cx="123.23141"
       cy="126.86473"
       r="7.2496858" /><ellipse
       style="fill:#ffffff;fill-opacity:1;stroke:none;stroke-width:0.264583;stroke-opacity:1"
       id="path7"
       cx="81.196487"
       cy="124.47243"
       rx="2.514004"
       ry="2.525697" /><ellipse
       style="fill:#ffffff;fill-opacity:1;stroke:none;stroke-width:0.264583;stroke-opacity:1"
       id="path7-3"
       cx="120.9268"
       cy="124.60489"
       rx="2.514004"
       ry="2.525697" /><ellipse
       style="fill:#e29585;fill-opacity:1;stroke:none;stroke-width:0.264583;stroke-opacity:1"
       id="path8"
       cx="75.373177"
       cy="141.27097"
       rx="6.3499999"
       ry="3.6710937" /><ellipse
       style="fill:#e29585;fill-opacity:1;stroke:none;stroke-width:0.264583;stroke-opacity:1"
       id="path8-6"
       cx="130.18123"
       cy="141.12901"
       rx="6.3499999"
       ry="3.6710937" /><path
       style="fill:#221b17;fill-opacity:1;stroke:none;stroke-width:0.264583;stroke-opacity:1"
       d="m 100.1944,140.31185 c 0.28112,1.68672 -1.080622,1.33158 -1.175178,1.3199 -0.811385,-0.10032 -0.511082,-0.59561 -2.578598,-1.18761 0,0 -1.563283,-0.17441 -1.563283,-1.91667 0,-1.74227 1.650327,-1.65252 1.906553,-1.6453 0.752883,0.0222 3.040935,1.21225 3.410506,3.42968 z"
       id="path9" /><path
       style="fill:#221b17;fill-opacity:1;stroke:none;stroke-width:0.264583;stroke-opacity:1"
       d="m 104.31646,140.35334 c -0.28112,1.68672 1.08063,1.33158 1.17518,1.3199 0.8114,-0.10032 0.51105,-0.5956 2.5786,-1.18761 0,0 1.56329,-0.17441 1.56329,-1.91667 0,-1.74227 -1.65033,-1.65252 -1.90656,-1.6453 -0.75288,0.0222 -3.04094,1.21225 -3.41051,3.42968 z"
       id="path9-6" /><path
       style="baseline-shift:baseline;display:inline;overflow:visible;opacity:1;vector-effect:none;fill:#e29585;fill-opacity:1;stroke-linecap:round;stroke-linejoin:round;enable-background:accumulate;stop-color:#000000;stop-opacity:1"
       d="m 63.163269,150.53763 c 0.500634,3.20186 2.151064,6.79915 5.6922,10.78852 4.84774,5.46136 13.192025,8.42143 20.363281,9.89453 7.129285,1.46446 12.93756,1.50542 13.00586,1.50586 14.30188,-0.92308 25.72748,-1.24578 36.73633,-11.75976 3.18949,-3.39265 4.72589,-6.72927 5.19603,-9.89611 0,0 -10.54296,18.46212 -41.05534,17.7319 -32.462029,-0.77688 -39.938361,-18.26494 -39.938361,-18.26494 z"
       id="path27" /><path
       id="path35"
       style="baseline-shift:baseline;display:inline;overflow:visible;opacity:1;vector-effect:none;fill:#56413a;fill-opacity:1;stroke-linecap:round;stroke-linejoin:round;enable-background:accumulate;stop-color:#000000;stop-opacity:1"
       d="m 68.288792,171.61726 c 0.71996,0.4452 1.492356,0.90853 2.319192,1.38059 6.679633,3.81359 16.912132,8.19712 31.753146,8.19712 21.32812,0 34.66186,-5.72578 42.63668,-11.54658 3.76641,-2.74909 6.35041,-5.54896 8.02873,-7.73842 0,0 -8.67124,20.974 -43.63493,23.47725 -29.505286,2.11246 -41.102818,-13.76996 -41.102818,-13.76996 z" /><path
       style="baseline-shift:baseline;display:inline;overflow:visible;opacity:1;vector-effect:none;fill:#221b17;fill-opacity:1;stroke-linecap:round;stroke-linejoin:round;enable-background:accumulate;stop-color:#000000;stop-opacity:1"
       d="m 121,103.87891 c -2.37107,0.19149 -5.54955,0.83088 -8.77344,2.61914 -3.67938,2.0409 -6.09677,2.8187 -8.43164,2.72851 -2.33487,-0.0902 -4.823464,-1.09055 -8.51367,-3.0664 -6.535492,-3.49933 -13.705814,-1.65968 -13.734375,-1.65235 -7.037035,1.51366 -11.677111,6.19568 -13.779297,11.73633 -1.956031,5.15543 -1.735927,11.01208 0.373047,16.0625 -0.01608,0.0136 -0.0246,0.0193 -0.04102,0.0332 -0.50896,0.43211 -1.178213,1.04176 -1.916015,1.82032 -1.475604,1.5571 -3.232529,3.78601 -4.498047,6.61328 -2.531037,5.65453 -2.827501,13.81021 4.925781,22.54492 5.603309,6.31259 14.523859,9.30526 22.003906,10.8418 7.480048,1.53653 13.63868,1.56836 13.63868,1.56836 0.0345,-1.4e-4 0.0691,-0.001 0.10351,-0.004 14.29032,-0.92359 26.94009,-1.35225 38.71485,-12.62305 0.0187,-0.0178 0.0369,-0.036 0.0547,-0.0547 5.88792,-6.2484 6.97915,-12.99383 5.66992,-18.62109 -1.20152,-5.16436 -4.25375,-9.32067 -7.2246,-11.9668 1.88903,-4.59186 2.27431,-10.45228 0.36328,-15.85156 -2.05575,-5.80799 -6.87444,-10.97924 -14.93557,-12.65224 -0.0214,-0.004 -0.0429,-0.008 -0.0644,-0.0117 0,0 -1.56448,-0.25595 -3.93555,-0.0644 z m 0.14063,2.98437 c 1.98442,-0.16948 3.26026,0.0373 3.2832,0.041 7.09314,1.48425 10.9233,5.73167 12.68359,10.70508 1.7634,4.98217 1.2651,10.72849 -0.61914,14.61523 -0.3059,0.63027 -0.13483,1.38836 0.41211,1.82617 2.67504,2.14362 5.85849,6.25742 6.97461,11.05469 0.44077,1.89452 0.58953,3.89354 0.28197,5.96522 -0.47014,3.16684 -2.00654,6.50346 -5.19603,9.89611 -11.00885,10.51398 -22.43445,10.83668 -36.73633,11.75976 -0.0683,-4.4e-4 -5.876575,-0.0414 -13.00586,-1.50586 -7.171256,-1.4731 -15.515541,-4.43317 -20.363281,-9.89453 -3.541136,-3.98937 -5.191566,-7.58666 -5.6922,-10.78852 -0.509093,-3.25596 0.170795,-6.10301 1.260559,-8.53763 1.08071,-2.41439 2.630373,-4.39607 3.9375,-5.77539 0.653564,-0.68966 1.245714,-1.22921 1.679688,-1.59766 0.216987,-0.18422 0.394369,-0.32747 0.517578,-0.42187 0.123209,-0.0944 0.305867,-0.20159 0.115234,-0.0899 0.678287,-0.39665 0.935585,-1.24947 0.589844,-1.95507 -2.208584,-4.50242 -2.485818,-10.12406 -0.691406,-14.85352 1.794411,-4.72946 5.534045,-8.57306 11.628906,-9.875 0.01568,-0.003 0.0313,-0.006 0.04687,-0.01 0,0 6.285571,-1.47192 11.617187,1.38281 3.805932,2.03782 6.724281,3.30055 9.814461,3.41992 3.09017,0.11937 6.11473,-0.94732 10.00195,-3.10352 2.76295,-1.53257 5.45685,-2.08681 7.45899,-2.25781 z"
       id="path37" /><path
       id="path46"
       style="baseline-shift:baseline;display:inline;overflow:visible;opacity:1;vector-effect:none;fill:#56413a;fill-opacity:1;stroke-linecap:round;stroke-linejoin:round;enable-background:accumulate;stop-color:#000000;stop-opacity:1"
       d="m 146.41218,183.61964 c -1.88271,14.20102 -9.63697,28.85687 -12.80955,34.38446 3.41216,-0.10382 6.19705,-0.61033 8.15712,-1.05833 0.006,-0.002 0.0111,-0.003 0.0171,-0.004 0.55928,-0.22411 1.10346,-0.38616 1.6061,-0.5023 -0.68534,-1.85801 -1.64998,-4.96839 -1.40663,-9.26197 0.17078,-3.01314 1.05381,-6.30381 3.32434,-9.19323 0,0 1.23003,-6.29739 1.11152,-14.36463 z" /></g></svg>
