<svg width="210" height="210" viewBox="0 0 210 210" fill="none" xmlns="http://www.w3.org/2000/svg">
<path d="M104.928 209.855C162.877 209.855 209.855 162.877 209.855 104.928C209.855 46.9777 162.877 0 104.928 0C46.9777 0 0 46.9777 0 104.928C0 162.877 46.9777 209.855 104.928 209.855Z" fill="#292727"/>
<path d="M127.24 107.052L117.61 79.7398C117.243 78.6967 117.737 77.5226 118.747 77.0665C120.457 76.2894 122.197 75.5588 123.962 74.8788C124.195 74.7901 124.418 74.6972 124.651 74.6127C126.18 74.0384 127.721 73.5063 129.267 73.0164C130.331 72.6785 131.459 73.2486 131.83 74.3002L160.042 154.319L166.296 172.061C166.922 173.83 165.11 175.515 163.425 174.73L15.8926 105.937C14.8748 105.464 14.4229 104.256 14.8664 103.2C15.597 101.452 16.3657 99.7075 17.1681 97.9717C17.2737 97.7394 17.375 97.5072 17.4848 97.2707C18.4731 95.1464 19.512 93.0601 20.5805 91.0033C23.0004 86.3535 25.6231 81.8684 28.4316 77.5564C29.8675 75.3561 31.3541 73.2022 32.8829 71.0905C34.4329 68.9536 36.0293 66.8715 37.6721 64.8274C53.6826 44.9399 73.9882 29.6685 96.4814 19.8114C98.8126 18.7936 101.161 17.8265 103.534 16.9269C105.266 16.2681 107.01 15.6388 108.763 15.0391C109.84 14.6717 111.001 15.2334 111.381 16.3061L115.82 28.8872L120.938 43.4027L125.314 55.8233C125.715 56.9552 125.09 58.2095 123.95 58.5812C122.476 59.0626 121.006 59.5736 119.541 60.1227C119.308 60.2113 119.089 60.3043 118.856 60.3887C116.47 61.3009 114.126 62.2934 111.833 63.3577C97.2711 70.1276 84.5337 79.9425 74.326 92.1436C73.0928 93.6175 71.8934 95.1295 70.7362 96.671C70.0352 97.6043 68.7386 97.807 67.8179 97.1229L58.9617 90.5219C58.0326 89.8293 57.8468 88.4863 58.5563 87.5402C59.705 86.0072 60.8875 84.5079 62.0996 83.034C73.7221 68.9029 88.2797 57.5211 104.957 49.6447C105.95 49.1759 106.427 48.0187 106.064 46.9882L102.348 36.4469C101.938 35.2897 100.637 34.7449 99.5221 35.2602C80.1288 44.2558 63.2399 57.4535 49.8732 73.9159C48.2219 75.9473 46.617 78.0336 45.0755 80.1664C43.5467 82.2865 42.077 84.453 40.6538 86.6618C38.8251 89.5125 37.0851 92.4308 35.4465 95.4251C34.8552 96.5063 35.2817 97.8535 36.3756 98.3645L136.89 145.235C138.575 146.02 140.387 144.335 139.762 142.565L138.968 140.314L127.235 107.043L127.24 107.052Z" fill="#EBEBEB"/>
</svg>
